<svg viewBox="0 0 420 250" width="100%"><g transform="translate(210,125)" class="svelte-1yrchv6"><path d="M3.67394039744206e-15,-60A60,60,0,0,1,40.68014937092316,-44.10357635339089L25.764094601584667,-27.93226502381423A38,38,0,0,0,2.326828918379971e-15,-38Z" fill="rgb(163, 158, 203)" class="svelte-1yrchv6"></path><polyline stroke="rgb(163, 158, 203)" stroke-width="0.5" points="17.83426317875895,-45.63922717214614,24.0216606081243,-61.47324476248256,66,-61.47324476248256" fill="none"></polyline><text class="legend svelte-1yrchv6" transform="translate(72,-61.47324476248256)" text-anchor="start">Chemioterapia rinviata di pochi giorni</text><text x="14.834263178758949" y="-45.63922717214614" class="svelte-1yrchv6">12%</text><path d="M40.68014937092316,-44.10357635339089A60,60,0,1,1,-43.85015785668743,-40.95318859311925L-27.771766642568707,-25.93701944230886A38,38,0,1,0,25.764094601584667,-27.93226502381423Z" fill="rgb(142, 127, 184)" class="svelte-1yrchv6"></path><polyline stroke="rgb(142, 127, 184)" stroke-width="0.5" points="1.8249301035429413,48.96600484128946,2.458069119057839,65.95421060255315,66,65.95421060255315" fill="none"></polyline><text class="legend svelte-1yrchv6" transform="translate(72,65.95421060255315)" text-anchor="start">Gli appuntamenti di chemioterapia sono rimasti invariati</text><text x="-1.1750698964570587" y="48.96600484128946" class="svelte-1yrchv6">75%</text><path d="M-43.85015785668743,-40.95318859311925A60,60,0,0,1,-10.378125801976621,-59.095638627891546L-6.572813007918526,-37.427237797664645A38,38,0,0,0,-27.771766642568707,-25.93701944230886Z" fill="rgb(125, 95, 163)" class="svelte-1yrchv6"></path><polyline stroke="rgb(125, 95, 163)" stroke-width="0.5" points="-23.349581300717297,-43.07896299913907,-31.450456445864113,-58.02472567230977,-66,-58.02472567230977" fill="none"></polyline><text class="legend svelte-1yrchv6" transform="translate(-72,-58.02472567230977)" text-anchor="end">Chemioterapia rinviata a data da destinarsi</text><text x="-26.349581300717297" y="-43.07896299913907" class="svelte-1yrchv6">10%</text><path d="M-10.378125801976621,-59.095638627891546A60,60,0,0,1,4.226888398968133e-14,-60L2.6770293193464843e-14,-38A38,38,0,0,0,-6.572813007918526,-37.427237797664645Z" fill="rgb(110, 62, 139)" class="svelte-1yrchv6"></path><polyline stroke="rgb(110, 62, 139)" stroke-width="0.5" points="-4.2537940461353285,-48.8150103576048,-5.729600143774116,-65.75083027759014,-66,-65.75083027759014" fill="none"></polyline><text class="legend svelte-1yrchv6" transform="translate(-72,-65.75083027759014)" text-anchor="end">Chemioterapia interrotta del tutto</text><text x="-7.2537940461353285" y="-48.8150103576048" class="svelte-1yrchv6">3%</text></g></svg>
